<?xml version="1.0" standalone="no"?>
<!DOCTYPE svg PUBLIC "-//W3C//DTD SVG 20010904//EN"
 "http://www.w3.org/TR/2001/REC-SVG-20010904/DTD/svg10.dtd">
<svg version="1.0" xmlns="http://www.w3.org/2000/svg"
 width="297.000000pt" height="298.000000pt" viewBox="0 0 297.000000 298.000000"
 preserveAspectRatio="xMidYMid meet">
<metadata>
Created by potrace 1.12, written by Peter Selinger 2001-2015
</metadata>
<g transform="translate(0.000000,298.000000) scale(0.100000,-0.100000)"
fill="#ffffff" stroke="none">
<path d="M1330 2974 c-262 -34 -541 -141 -722 -279 -269 -204 -443 -448 -536
-751 -49 -159 -72 -299 -72 -435 0 -339 95 -633 295 -914 108 -152 365 -362
551 -450 424 -201 927 -188 1338 35 292 158 482 356 631 655 110 220 149 401
149 680 0 239 -34 392 -134 602 -77 163 -169 293 -300 424 -221 222 -485 360
-790 415 -85 15 -344 26 -410 18z m573 -112 c56 -28 119 -53 140 -57 44 -9 43
-21 -4 -53 -47 -32 -78 -23 -139 37 -27 27 -65 55 -85 61 -37 12 -63 6 -29 -6
35 -13 101 -63 118 -88 15 -24 15 -28 0 -51 -15 -22 -23 -26 -62 -23 -42 3
-45 5 -61 46 -16 41 -61 97 -61 75 0 -6 7 -16 14 -23 8 -6 20 -27 26 -45 20
-62 -19 -97 -85 -75 -40 13 -40 13 -19 45 16 25 12 60 -9 68 -7 2 -22 1 -34
-4 -19 -7 -23 -16 -23 -52 0 -35 6 -49 30 -72 54 -52 145 -43 350 36 72 27 99
32 175 33 105 1 147 -16 208 -83 81 -90 54 -225 -57 -277 -94 -44 -154 -30
-271 60 -33 26 -81 54 -107 64 -27 9 -48 22 -48 28 0 36 95 69 126 43 10 -8
35 -38 56 -67 43 -59 64 -66 25 -9 -13 19 -30 49 -37 67 -12 29 -11 33 12 57
23 23 28 24 67 13 l41 -11 0 -52 c0 -34 6 -60 16 -73 15 -19 16 -19 9 1 -25
74 -12 125 31 125 24 0 74 -39 74 -58 0 -6 -11 -13 -25 -16 -55 -14 -53 -86 3
-86 46 0 67 22 67 72 0 89 -65 138 -185 138 -60 0 -88 -6 -164 -36 -114 -46
-184 -63 -263 -64 -74 0 -99 9 -147 50 -76 67 -79 178 -8 254 53 55 85 67 165
63 58 -4 85 -12 170 -55z m-537 17 c81 -41 119 -152 79 -228 -24 -47 -92 -99
-144 -110 -67 -14 -130 0 -297 64 -138 53 -152 57 -218 53 -101 -5 -156 -51
-156 -132 0 -55 48 -94 78 -64 18 18 14 46 -8 60 -25 16 -25 22 2 48 25 23 66
26 93 7 24 -18 14 -75 -21 -117 -14 -16 -21 -30 -16 -30 23 0 62 62 68 110 7
55 17 67 60 76 25 5 32 1 47 -25 20 -34 16 -47 -30 -109 -43 -58 -18 -45 37
18 44 51 57 60 86 60 23 0 44 -9 66 -29 31 -27 32 -30 13 -36 -28 -8 -97 -44
-185 -96 -66 -39 -83 -44 -145 -47 -58 -3 -78 1 -114 20 -62 32 -84 66 -89
137 -6 81 10 124 61 161 104 76 202 76 402 -3 157 -61 247 -72 303 -38 52 33
69 103 32 136 -21 19 -47 14 -57 -11 -4 -11 1 -23 15 -35 32 -26 27 -48 -15
-65 -72 -31 -115 23 -74 92 12 20 20 38 18 41 -7 6 -30 -26 -52 -71 -15 -31
-28 -43 -54 -50 -31 -9 -36 -7 -57 19 -28 35 -23 48 45 119 61 64 19 43 -61
-31 -55 -51 -63 -55 -97 -49 -36 5 -85 48 -79 68 4 10 174 78 258 104 65 19
148 13 206 -17z m-811 -439 c6 -20 4 -21 -17 -13 -12 4 -51 8 -85 8 -35 -1
-63 2 -63 5 0 4 9 15 20 25 11 10 20 25 20 33 0 18 29 52 44 52 6 0 22 9 36
20 l25 19 7 -64 c3 -35 9 -73 13 -85z m1195 46 c369 -103 640 -381 737 -756
20 -78 25 -119 24 -230 0 -155 -16 -251 -65 -381 -57 -153 -109 -232 -236
-359 -124 -123 -176 -159 -321 -221 -141 -61 -240 -82 -394 -81 -210 0 -390
50 -559 157 -170 107 -276 221 -368 401 -58 113 -84 188 -103 306 -38 232 -5
440 103 654 132 262 407 465 718 529 113 23 346 14 464 -19z m-1190 -98 c51
-35 75 -90 75 -174 0 -71 -1 -73 -57 -156 -32 -47 -67 -107 -79 -133 l-22 -49
-18 23 c-12 15 -19 39 -19 67 0 41 3 46 55 84 50 37 115 124 102 136 -3 3 -12
-7 -21 -23 -20 -39 -89 -101 -122 -109 -28 -7 -94 18 -94 36 0 6 7 24 15 39
12 25 22 29 76 35 46 6 67 13 86 32 30 30 23 45 -7 16 -31 -29 -86 -37 -116
-17 -34 22 -33 76 2 104 34 27 40 26 48 -4 10 -41 66 -27 66 16 0 55 -89 67
-143 19 -74 -64 -74 -171 -3 -360 77 -202 74 -326 -9 -398 -92 -81 -236 -58
-293 48 -21 40 -23 55 -20 127 4 72 10 93 46 166 22 46 50 105 62 131 20 47
21 48 43 33 46 -31 39 -105 -17 -167 -36 -40 -71 -99 -63 -106 2 -2 17 14 32
36 16 23 42 51 58 62 28 20 31 20 63 4 41 -19 49 -36 37 -72 -6 -19 -22 -31
-57 -45 -48 -18 -86 -45 -86 -60 0 -5 16 3 36 16 76 52 137 15 101 -60 -18
-38 -28 -43 -47 -20 -26 31 -70 11 -70 -32 0 -41 49 -54 106 -27 44 21 66 64
66 125 0 54 -8 83 -69 238 -38 95 -46 126 -47 185 -1 89 16 146 57 193 41 47
78 62 153 63 47 0 69 -5 94 -22z m2064 -9 c75 -50 115 -193 87 -307 -7 -26
-37 -104 -67 -174 -39 -93 -54 -139 -54 -173 0 -74 38 -121 112 -139 20 -4 34
0 55 18 27 24 27 26 13 53 -24 42 -50 37 -77 -15 -6 -12 -46 14 -58 39 -18 34
-9 59 30 85 29 19 74 8 112 -28 13 -12 23 -17 23 -11 0 17 -44 52 -80 64 -48
16 -60 27 -60 55 0 31 26 54 60 54 24 0 37 -11 71 -55 23 -31 44 -53 47 -51 3
3 -18 37 -46 75 -69 95 -75 108 -67 148 7 36 49 88 64 79 5 -3 11 -24 15 -47
4 -23 25 -78 46 -123 69 -139 74 -234 20 -320 -32 -50 -64 -70 -126 -81 -123
-20 -215 67 -215 204 0 68 16 122 75 266 48 116 56 172 36 247 -23 81 -101
133 -157 106 -31 -15 -41 -42 -23 -63 16 -19 59 -19 66 0 9 22 41 18 58 -7 22
-32 20 -55 -9 -84 -28 -28 -54 -26 -113 9 l-34 20 13 -21 c16 -25 51 -42 89
-42 16 0 41 -4 55 -10 23 -9 26 -15 23 -51 -2 -31 -9 -44 -29 -56 -37 -22 -72
-11 -128 42 -58 54 -72 58 -35 10 14 -19 53 -51 85 -71 44 -27 59 -41 59 -58
0 -24 -38 -87 -56 -93 -6 -2 -19 16 -30 39 -10 24 -40 75 -66 115 -86 132 -90
148 -63 239 14 48 61 105 110 133 33 19 128 8 169 -20z m-2538 -810 c16 -17
47 -40 69 -51 l40 -21 -25 -16 c-14 -8 -45 -35 -69 -58 -24 -24 -46 -41 -49
-38 -20 19 -22 215 -2 215 3 0 19 -14 36 -31z m229 -110 c55 -15 97 -64 119
-137 26 -84 19 -124 -49 -282 -83 -193 -86 -287 -13 -359 36 -35 88 -42 126
-15 28 19 29 60 1 74 -30 17 -49 5 -49 -30 0 -23 -4 -30 -20 -30 -54 0 -81 89
-39 131 24 24 67 19 112 -12 15 -11 27 -15 27 -9 0 18 -64 50 -102 50 -65 0
-97 56 -55 97 31 32 69 25 132 -23 25 -19 48 -34 52 -34 13 0 -43 52 -84 78
-49 31 -61 59 -43 103 12 28 50 60 50 42 0 -5 21 -44 46 -88 106 -182 104
-176 104 -240 0 -134 -100 -216 -235 -191 -51 10 -100 58 -125 122 -36 98 -24
183 56 369 54 128 64 187 40 250 -10 25 -27 52 -39 60 -28 20 -81 19 -101 -1
-19 -18 -19 -20 -6 -45 14 -25 35 -24 54 2 l15 21 25 -25 c68 -68 -15 -143
-96 -86 -16 12 -32 19 -35 16 -8 -8 57 -47 89 -54 34 -7 44 -18 53 -60 6 -29
3 -34 -27 -53 -18 -11 -38 -20 -45 -20 -17 0 -81 68 -104 110 -20 35 -20 35
-14 5 4 -16 23 -49 43 -73 65 -77 73 -94 68 -136 -7 -62 -76 -115 -76 -59 0 8
-23 68 -51 132 -44 100 -51 125 -52 182 0 54 5 75 29 119 52 96 120 126 219
99z m2504 -32 c63 -42 86 -89 86 -177 -1 -68 -5 -84 -48 -175 -25 -56 -50
-119 -55 -140 -10 -52 -35 -57 -62 -13 -35 59 -28 97 35 167 30 34 62 76 70
94 l15 32 -22 -30 c-40 -53 -98 -105 -117 -105 -28 0 -71 39 -71 63 0 33 12
45 60 62 58 20 86 40 101 67 10 19 6 17 -24 -9 -62 -55 -139 -54 -153 2 -8 30
19 75 44 75 10 0 25 -9 35 -20 23 -27 35 -25 49 6 11 23 10 29 -11 45 -13 11
-37 19 -55 19 -67 0 -106 -58 -106 -156 0 -47 9 -75 59 -182 104 -222 104
-322 3 -434 -64 -71 -143 -87 -217 -45 -49 28 -79 72 -95 138 -18 75 -1 140
62 236 28 43 61 100 73 127 l21 48 28 -33 c43 -51 33 -86 -49 -161 -36 -33
-65 -65 -65 -71 0 -6 15 3 33 19 47 45 88 74 103 74 7 0 26 -11 42 -24 23 -21
28 -31 24 -58 -5 -42 -26 -58 -75 -58 -21 0 -52 -8 -68 -17 -42 -25 -36 -34 9
-12 37 20 74 18 99 -3 20 -17 15 -69 -9 -95 -26 -28 -48 -30 -48 -4 0 43 -50
49 -71 9 -8 -14 -6 -25 5 -44 37 -56 116 -36 166 43 27 41 30 56 30 122 0 64
-6 89 -36 161 -68 162 -77 192 -77 265 0 113 45 188 131 216 44 14 109 3 151
-24z m-1916 -835 c46 -29 110 -63 141 -77 31 -14 56 -29 56 -35 0 -16 -62 -50
-91 -50 -20 0 -41 17 -88 70 -35 39 -68 70 -74 70 -6 0 5 -17 25 -37 21 -21
44 -55 53 -76 15 -36 15 -39 -5 -67 -12 -17 -25 -30 -30 -30 -26 0 -61 26 -66
49 -10 49 -35 109 -50 121 -12 11 -12 7 1 -23 19 -46 19 -101 1 -116 -18 -15
-59 -5 -82 20 -15 17 -16 24 -6 39 26 42 5 98 -31 84 -23 -8 -40 -58 -32 -94
9 -43 66 -97 111 -106 65 -12 150 5 291 57 121 46 147 52 213 53 100 0 169
-36 206 -106 16 -31 18 -105 5 -141 -15 -38 -70 -96 -112 -118 -74 -37 -134
-26 -349 65 -47 19 -93 36 -102 36 -10 0 -18 7 -18 15 0 23 60 55 102 55 31 0
47 -9 92 -50 58 -52 110 -84 128 -78 6 2 -4 13 -23 24 -62 37 -109 84 -109
110 0 39 28 74 60 74 46 0 59 -10 66 -48 7 -43 28 -80 58 -104 40 -33 44 -18
5 21 -44 43 -52 90 -22 123 20 22 70 23 95 1 22 -20 24 -53 3 -53 -21 0 -29
-24 -15 -49 15 -29 44 -26 70 6 35 45 13 106 -50 138 -74 38 -170 24 -288 -42
-70 -39 -184 -73 -243 -73 -55 0 -142 36 -179 73 -80 80 -81 197 -2 271 45 43
80 56 144 53 48 -3 69 -11 141 -55z m1430 15 c70 -53 93 -116 75 -201 -14 -64
-74 -127 -141 -145 -89 -25 -175 -11 -324 53 -123 53 -138 57 -209 57 -70 0
-80 -2 -113 -29 -32 -26 -36 -34 -36 -78 l0 -49 35 0 c28 0 36 4 38 22 2 13
-5 27 -18 36 -25 17 -18 40 16 56 37 16 50 14 73 -15 33 -42 13 -111 -42 -144
-28 -17 -29 -20 -10 -20 29 0 71 52 84 107 12 44 31 64 76 77 18 6 25 1 37
-23 9 -17 16 -39 16 -50 0 -24 -42 -75 -94 -112 -21 -16 -36 -29 -32 -29 21 0
78 39 128 87 55 54 58 56 100 50 31 -4 51 -14 71 -37 15 -17 25 -35 22 -39 -2
-5 -26 -11 -52 -13 -27 -3 -91 -25 -143 -49 -74 -34 -110 -44 -162 -47 -85 -5
-109 1 -153 39 -76 67 -79 192 -6 269 75 78 176 78 370 -2 109 -44 137 -52
212 -56 73 -4 91 -1 128 17 42 22 81 71 81 104 0 36 -29 77 -56 77 -33 0 -41
-25 -20 -62 16 -27 17 -31 1 -54 -13 -21 -23 -25 -53 -22 -69 6 -76 76 -14
141 14 15 21 27 16 27 -27 0 -65 -59 -76 -118 -11 -59 -13 -63 -47 -72 -32 -9
-38 -7 -64 18 -22 21 -27 32 -22 52 10 40 54 90 107 123 57 35 57 47 1 18 -41
-21 -77 -52 -130 -114 -36 -42 -62 -47 -110 -17 -40 24 -42 46 -5 53 15 3 56
25 92 49 135 90 157 98 241 96 65 -3 81 -7 112 -31z"/>
<path d="M750 2070 c0 -16 7 -20 34 -20 18 0 47 -5 65 -11 61 -22 61 -19 61
-541 0 -441 -2 -476 -19 -514 -19 -43 -37 -53 -118 -69 -19 -4 -33 -13 -33
-21 0 -12 35 -14 205 -14 169 0 205 2 205 14 0 16 -21 26 -55 26 -13 0 -37 11
-54 25 -49 42 -52 83 -49 529 l3 399 215 -497 c152 -350 219 -496 229 -494 9
2 104 215 235 523 l221 519 3 -414 c3 -424 -4 -528 -34 -561 -9 -10 -40 -23
-70 -29 -35 -7 -54 -16 -54 -26 0 -12 39 -14 245 -14 208 0 245 2 245 15 0 9
-14 16 -37 20 -57 9 -80 21 -100 52 -17 25 -18 61 -18 508 0 264 3 492 8 507
9 35 42 56 98 66 29 5 44 13 44 22 0 13 -27 15 -174 15 l-174 0 -191 -457
c-104 -252 -192 -456 -194 -453 -3 2 -93 208 -201 457 l-197 453 -172 3 c-167
2 -172 2 -172 -18z"/>
</g>
</svg>
